# Blender v2.79 (sub 0) OBJ File: ''
# www.blender.org
mtllib health.mtl
o Cube_Cube.002
v -0.927831 -4.639157 0.927831
v -1.072169 -5.360843 1.072169
v -0.927831 4.639157 0.927831
v -1.072169 5.360843 1.072169
v -0.927831 -4.639157 -0.927831
v -1.072169 -5.360843 -1.072169
v -0.927831 4.639157 -0.927831
v -1.072169 5.360843 -1.072169
v 0.927831 -4.639157 0.927831
v 1.072169 -5.360843 1.072169
v 0.927831 4.639157 0.927831
v 1.072169 5.360843 1.072169
v 0.927831 -4.639157 -0.927831
v 1.072169 -5.360843 -1.072169
v 0.927831 4.639157 -0.927831
v 1.072169 5.360843 -1.072169
v -1.000000 -4.375000 0.875000
v -1.000000 4.375000 0.875000
v -1.000000 4.375000 -0.875000
v -1.000000 -4.375000 -0.875000
v -0.875000 -4.375000 -1.000000
v -0.875000 4.375000 -1.000000
v 0.875000 4.375000 -1.000000
v 0.875000 -4.375000 -1.000000
v 1.000000 -4.375000 -0.875000
v 1.000000 4.375000 -0.875000
v 1.000000 4.375000 0.875000
v 1.000000 -4.375000 0.875000
v 0.875000 -4.375000 1.000000
v 0.875000 4.375000 1.000000
v -0.875000 4.375000 1.000000
v -0.875000 -4.375000 1.000000
v -0.875000 -5.000000 -0.875000
v 0.875000 -5.000000 -0.875000
v 0.875000 -5.000000 0.875000
v -0.875000 -5.000000 0.875000
v 0.875000 5.000000 -0.875000
v -0.875000 5.000000 -0.875000
v -0.875000 5.000000 0.875000
v 0.875000 5.000000 0.875000
vn 0.5907 0.0000 -0.8069
vn -0.9391 0.0000 -0.3437
vn 0.9646 -0.2635 0.0000
vn -0.9973 -0.0730 0.0000
vn 0.5907 0.0000 0.8069
vn -0.9391 0.0000 0.3437
vn 0.9646 0.2635 0.0000
vn -0.9973 0.0730 0.0000
vn 0.8069 0.0000 0.5907
vn 0.3437 0.0000 -0.9391
vn 0.0000 -0.2635 0.9646
vn 0.0000 -0.0730 -0.9973
vn -0.8069 0.0000 0.5907
vn -0.3437 0.0000 -0.9391
vn 0.0000 0.2635 0.9646
vn 0.0000 0.0730 -0.9973
vn -0.5907 0.0000 0.8069
vn 0.9391 0.0000 0.3437
vn -0.9646 -0.2635 0.0000
vn 0.9973 -0.0730 0.0000
vn -0.5907 0.0000 -0.8069
vn 0.9391 0.0000 -0.3437
vn -0.9646 0.2635 0.0000
vn 0.9973 0.0730 0.0000
vn -0.8069 0.0000 -0.5907
vn -0.3437 0.0000 0.9391
vn 0.0000 -0.2635 -0.9646
vn 0.0000 -0.0730 0.9973
vn 0.8069 0.0000 -0.5907
vn 0.3437 0.0000 0.9391
vn 0.0000 0.2635 -0.9646
vn 0.0000 0.0730 0.9973
vn 0.0000 0.1449 0.9895
vn 0.0000 -0.4795 0.8775
vn -0.9895 0.1449 0.0000
vn -0.8775 -0.4795 0.0000
vn 0.0000 0.1449 -0.9895
vn 0.0000 -0.4795 -0.8775
vn 0.9895 0.1449 0.0000
vn 0.8775 -0.4795 0.0000
vn 0.0000 -0.1449 0.9895
vn 0.0000 0.4795 0.8775
vn 0.9895 -0.1449 0.0000
vn 0.8775 0.4795 0.0000
vn 0.0000 -0.1449 -0.9895
vn 0.0000 0.4795 -0.8775
vn -0.9895 -0.1449 0.0000
vn -0.8775 0.4795 0.0000
usemtl Material.002
s off
f 17//1 18//1 3//1 1//1
f 18//2 17//2 2//2 4//2
f 18//3 19//3 7//3 3//3
f 19//4 18//4 4//4 8//4
f 19//5 20//5 5//5 7//5
f 20//6 19//6 8//6 6//6
f 20//7 17//7 1//7 5//7
f 17//8 20//8 6//8 2//8
f 21//9 22//9 7//9 5//9
f 22//10 21//10 6//10 8//10
f 22//11 23//11 15//11 7//11
f 23//12 22//12 8//12 16//12
f 23//13 24//13 13//13 15//13
f 24//14 23//14 16//14 14//14
f 24//15 21//15 5//15 13//15
f 21//16 24//16 14//16 6//16
f 25//17 26//17 15//17 13//17
f 26//18 25//18 14//18 16//18
f 26//19 27//19 11//19 15//19
f 27//20 26//20 16//20 12//20
f 27//21 28//21 9//21 11//21
f 28//22 27//22 12//22 10//22
f 28//23 25//23 13//23 9//23
f 25//24 28//24 10//24 14//24
f 29//25 30//25 11//25 9//25
f 30//26 29//26 10//26 12//26
f 30//27 31//27 3//27 11//27
f 31//28 30//28 12//28 4//28
f 31//29 32//29 1//29 3//29
f 32//30 31//30 4//30 2//30
f 32//31 29//31 9//31 1//31
f 29//32 32//32 2//32 10//32
f 33//33 34//33 13//33 5//33
f 34//34 33//34 6//34 14//34
f 34//35 35//35 9//35 13//35
f 35//36 34//36 14//36 10//36
f 35//37 36//37 1//37 9//37
f 36//38 35//38 10//38 2//38
f 36//39 33//39 5//39 1//39
f 33//40 36//40 2//40 6//40
f 37//41 38//41 7//41 15//41
f 38//42 37//42 16//42 8//42
f 38//43 39//43 3//43 7//43
f 39//44 38//44 8//44 4//44
f 39//45 40//45 11//45 3//45
f 40//46 39//46 4//46 12//46
f 40//47 37//47 15//47 11//47
f 37//48 40//48 12//48 16//48
o Cube.001_Cube.003
v -4.639157 -0.927831 0.927831
v -5.360843 -1.072169 1.072169
v -4.639157 0.927831 0.927831
v -5.360843 1.072169 1.072169
v -4.639157 -0.927831 -0.927831
v -5.360843 -1.072169 -1.072169
v -4.639157 0.927831 -0.927831
v -5.360843 1.072169 -1.072169
v 4.639157 -0.927831 0.927831
v 5.360843 -1.072169 1.072169
v 4.639157 0.927831 0.927831
v 5.360843 1.072169 1.072169
v 4.639157 -0.927831 -0.927831
v 5.360843 -1.072169 -1.072169
v 4.639157 0.927831 -0.927831
v 5.360843 1.072169 -1.072169
v -5.000000 -0.875000 0.875000
v -5.000000 0.875000 0.875000
v -5.000000 0.875000 -0.875000
v -5.000000 -0.875000 -0.875000
v -4.375000 -0.875000 -1.000000
v -4.375000 0.875000 -1.000000
v 4.375000 0.875000 -1.000000
v 4.375000 -0.875000 -1.000000
v 5.000000 -0.875000 -0.875000
v 5.000000 0.875000 -0.875000
v 5.000000 0.875000 0.875000
v 5.000000 -0.875000 0.875000
v 4.375000 -0.875000 1.000000
v 4.375000 0.875000 1.000000
v -4.375000 0.875000 1.000000
v -4.375000 -0.875000 1.000000
v -4.375000 -1.000000 -0.875000
v 4.375000 -1.000000 -0.875000
v 4.375000 -1.000000 0.875000
v -4.375000 -1.000000 0.875000
v 4.375000 1.000000 -0.875000
v -4.375000 1.000000 -0.875000
v -4.375000 1.000000 0.875000
v 4.375000 1.000000 0.875000
vn 0.1449 0.0000 -0.9895
vn -0.4795 0.0000 -0.8775
vn 0.1449 -0.9895 0.0000
vn -0.4795 -0.8775 0.0000
vn 0.1449 0.0000 0.9895
vn -0.4795 0.0000 0.8775
vn 0.1449 0.9895 0.0000
vn -0.4795 0.8775 0.0000
vn 0.2635 0.0000 0.9646
vn 0.0730 0.0000 -0.9973
vn 0.0000 -0.8069 0.5907
vn 0.0000 -0.3437 -0.9391
vn -0.2635 0.0000 0.9646
vn -0.0730 0.0000 -0.9973
vn 0.0000 0.8069 0.5907
vn 0.0000 0.3437 -0.9391
vn -0.1449 0.0000 0.9895
vn 0.4795 0.0000 0.8775
vn -0.1449 -0.9895 0.0000
vn 0.4795 -0.8775 0.0000
vn -0.1449 0.0000 -0.9895
vn 0.4795 0.0000 -0.8775
vn -0.1449 0.9895 0.0000
vn 0.4795 0.8775 0.0000
vn -0.2635 0.0000 -0.9646
vn -0.0730 0.0000 0.9973
vn 0.0000 -0.8069 -0.5907
vn 0.0000 -0.3437 0.9391
vn 0.2635 0.0000 -0.9646
vn 0.0730 0.0000 0.9973
vn 0.0000 0.8069 -0.5907
vn 0.0000 0.3437 0.9391
vn 0.0000 0.5907 0.8069
vn 0.0000 -0.9391 0.3437
vn -0.2635 0.9646 0.0000
vn -0.0730 -0.9973 0.0000
vn 0.0000 0.5907 -0.8069
vn 0.0000 -0.9391 -0.3437
vn 0.2635 0.9646 0.0000
vn 0.0730 -0.9973 0.0000
vn 0.0000 -0.5907 0.8069
vn 0.0000 0.9391 0.3437
vn 0.2635 -0.9646 0.0000
vn 0.0730 0.9973 0.0000
vn 0.0000 -0.5907 -0.8069
vn 0.0000 0.9391 -0.3437
vn -0.2635 -0.9646 0.0000
vn -0.0730 0.9973 0.0000
usemtl Material.002
s off
f 57//49 58//49 43//49 41//49
f 58//50 57//50 42//50 44//50
f 58//51 59//51 47//51 43//51
f 59//52 58//52 44//52 48//52
f 59//53 60//53 45//53 47//53
f 60//54 59//54 48//54 46//54
f 60//55 57//55 41//55 45//55
f 57//56 60//56 46//56 42//56
f 61//57 62//57 47//57 45//57
f 62//58 61//58 46//58 48//58
f 62//59 63//59 55//59 47//59
f 63//60 62//60 48//60 56//60
f 63//61 64//61 53//61 55//61
f 64//62 63//62 56//62 54//62
f 64//63 61//63 45//63 53//63
f 61//64 64//64 54//64 46//64
f 65//65 66//65 55//65 53//65
f 66//66 65//66 54//66 56//66
f 66//67 67//67 51//67 55//67
f 67//68 66//68 56//68 52//68
f 67//69 68//69 49//69 51//69
f 68//70 67//70 52//70 50//70
f 68//71 65//71 53//71 49//71
f 65//72 68//72 50//72 54//72
f 69//73 70//73 51//73 49//73
f 70//74 69//74 50//74 52//74
f 70//75 71//75 43//75 51//75
f 71//76 70//76 52//76 44//76
f 71//77 72//77 41//77 43//77
f 72//78 71//78 44//78 42//78
f 72//79 69//79 49//79 41//79
f 69//80 72//80 42//80 50//80
f 73//81 74//81 53//81 45//81
f 74//82 73//82 46//82 54//82
f 74//83 75//83 49//83 53//83
f 75//84 74//84 54//84 50//84
f 75//85 76//85 41//85 49//85
f 76//86 75//86 50//86 42//86
f 76//87 73//87 45//87 41//87
f 73//88 76//88 42//88 46//88
f 77//89 78//89 47//89 55//89
f 78//90 77//90 56//90 48//90
f 78//91 79//91 43//91 47//91
f 79//92 78//92 48//92 44//92
f 79//93 80//93 51//93 43//93
f 80//94 79//94 44//94 52//94
f 80//95 77//95 55//95 51//95
f 77//96 80//96 52//96 56//96
